<svg width="288" height="376" viewBox="0 0 288 376" fill="none" xmlns="http://www.w3.org/2000/svg">
<path d="M167.642 0L156.865 62.2675H81.4261L64.6619 159.261H0V176.025H89.8082C153.273 176.025 162.852 130.522 171.234 87.414L184.406 0H167.642Z" fill="#0024F6"/>
<path d="M59.8783 184.408L37.127 314.93H111.368L100.591 376H117.356C120.15 357.639 128.372 306.787 138.91 250.267C149.447 193.748 114.562 182.811 95.8016 184.408H59.8783Z" fill="#0024F6"/>
<path d="M247.873 62.2673H182.013C179.618 81.4266 167.644 129.325 172.434 144.892C177.223 160.458 193.988 177.223 229.911 173.63C265.834 170.038 292.178 129.325 287.388 98.1909C283.556 73.2839 267.032 63.4648 247.873 62.2673Z" fill="#0024F6"/>
<path d="M220.328 314.93L137.701 314.93C149.676 204.764 190.389 190.395 193.981 188C197.573 185.605 274.213 161.656 283.792 229.911C291.456 284.515 237.092 314.93 220.328 314.93Z" fill="#0024F6"/>
</svg>
