<svg width="52" height="53" viewBox="0 0 52 53" fill="none" xmlns="http://www.w3.org/2000/svg">
<rect width="52" height="52.4176" rx="8" fill="url(#paint0_linear_928_4439)"/>
<mask id="path-2-outside-1_928_4439" maskUnits="userSpaceOnUse" x="11" y="11" width="30" height="30" fill="black">
<rect fill="white" x="11" y="11" width="30" height="30"/>
<path d="M39.7047 20.773C37.3705 18.0028 35.0458 15.2259 32.7307 12.4425C32.6059 12.2753 32.4361 12.147 32.2412 12.0725C32.0462 11.998 31.8341 11.9805 31.6296 12.0219C31.0549 12.0924 30.4757 12.1298 29.8966 12.1739C28.3199 12.2972 26.741 12.4117 25.1643 12.535C23.5523 12.6605 21.9404 12.7927 20.3197 12.9204C19.2693 13.0041 18.2167 13.0965 17.1641 13.1626C16.9201 13.1527 16.6805 13.2295 16.4878 13.3795C16.2951 13.5294 16.1618 13.7428 16.1115 13.9818C14.799 17.9749 13.4609 21.9585 12.097 25.9325C12.0154 26.1426 11.9846 26.3691 12.0072 26.5933C12.0298 26.8176 12.1051 27.0334 12.227 27.223C14.0371 30.3617 15.8355 33.507 17.6221 36.6589C18.2313 37.7292 18.8391 38.7994 19.4454 39.8696C19.6304 40.1955 19.8506 40.4532 20.0884 40.4135C21.2357 40.277 22.1958 40.1625 23.156 40.0436C25.9453 39.7015 28.7346 39.3588 31.5239 39.0152C31.8243 38.9848 32.1081 38.8625 32.3365 38.6651C34.1951 37.1031 36.0588 35.5491 37.9276 34.0033C38.203 33.7869 38.3812 33.4701 38.4231 33.1224C38.6697 31.2947 38.923 29.4669 39.1718 27.6392C39.4361 25.6903 39.6893 23.7371 39.9734 21.7904C40.0124 21.6117 40.0085 21.4262 39.9618 21.2493C39.915 21.0724 39.8269 20.9092 39.7047 20.773ZM31.8036 24.5166C31.9005 25.7953 32.0025 27.074 32.1097 28.3526C32.1319 28.4631 32.1216 28.5775 32.0802 28.6823C32.0388 28.787 31.968 28.8775 31.8763 28.9428C29.9957 30.3918 28.1327 31.854 26.2521 33.3096C26.2207 33.3288 26.1875 33.345 26.153 33.358C25.9857 33.2809 25.9064 33.118 25.7985 32.9837C24.3165 31.1295 22.8433 29.2687 21.3524 27.4212C21.2578 27.3224 21.1962 27.1967 21.1761 27.0614C21.156 26.9261 21.1784 26.7879 21.2401 26.6659C22.2193 24.0674 23.1905 21.4653 24.1535 18.8594C24.1903 18.7208 24.2712 18.5979 24.384 18.5093C24.4969 18.4207 24.6355 18.3712 24.7789 18.3684C26.9215 18.0887 29.0576 17.7782 31.2266 17.4721C31.3962 18.2032 31.3764 18.8925 31.4358 19.5729C31.5812 21.2223 31.6759 22.8717 31.8036 24.521V24.5166ZM20.2734 14.0897C22.2685 13.9355 24.2636 13.7902 26.2587 13.6317C27.7826 13.5105 29.3042 13.3784 30.8259 13.2507C30.9294 13.2507 31.0461 13.2507 31.1408 13.2375C31.3345 13.2177 31.3852 13.3167 31.361 13.4885C31.2905 14.3693 31.2178 15.2392 31.154 16.1134C31.1408 16.316 30.9976 16.3336 30.8633 16.3336C30.2555 16.4247 29.6477 16.5127 29.04 16.5979C27.58 16.8027 26.12 17.0009 24.66 17.2123C24.2458 17.2886 23.8179 17.2102 23.4576 16.9921C22.0703 16.1685 20.6544 15.3889 19.2516 14.5873C19.0464 14.4949 18.8592 14.3667 18.6989 14.2086C19.2759 14.1844 19.7845 14.1337 20.2734 14.0941V14.0897ZM17.1046 14.7327L18.9257 15.7655C20.222 16.4995 21.5191 17.2335 22.8168 17.9676C23.1648 18.1658 23.167 18.1702 23.0371 18.5225C22.0879 21.0747 21.13 23.6226 20.1919 26.1792C20.179 26.2415 20.1536 26.3005 20.1173 26.3527C20.081 26.4049 20.0345 26.4492 19.9806 26.4829C19.9266 26.5167 19.8665 26.5392 19.8036 26.549C19.7408 26.5589 19.6766 26.5559 19.615 26.5403C18.0603 26.3994 16.5012 26.2871 14.9443 26.1528C14.4225 26.1065 13.8917 26.1351 13.317 25.9766C14.5744 22.2506 15.8318 18.5203 17.1046 14.7371V14.7327ZM20.2008 38.8126L13.6187 27.2626C14.004 27.2802 14.2991 27.2868 14.592 27.3111L18.2167 27.6084C18.743 27.6524 19.2671 27.692 19.7934 27.7251C19.9152 27.7329 20.0336 27.768 20.14 27.8278C20.2464 27.8877 20.3379 27.9707 20.4077 28.0708C21.9037 29.9602 23.4033 31.8459 24.9066 33.728C25.0564 33.9152 25.1863 34.0495 24.9353 34.2895C23.4092 35.7473 21.9008 37.2249 20.3857 38.6937C20.3268 38.7388 20.265 38.78 20.2008 38.817V38.8126ZM35.5207 34.4877C34.2817 35.5154 33.0426 36.5518 31.8036 37.597C31.6352 37.7498 31.4237 37.8468 31.198 37.8745C29.2161 38.1079 27.2342 38.3546 25.2391 38.6012C24.2284 38.7245 23.2176 38.8589 22.2091 38.9866C22.0872 39.0195 21.9583 39.0149 21.8391 38.9734C21.8876 38.7906 22.0483 38.6981 22.1672 38.5814C23.3872 37.3901 24.6137 36.2053 25.8337 35.014C26.1134 34.7387 26.4943 34.622 26.7916 34.382C28.6128 32.944 30.4471 31.5193 32.277 30.1012C32.6514 29.8105 32.6536 29.8105 33.0015 30.1012L36.8112 33.3823C36.3487 33.7918 35.9369 34.1442 35.5207 34.4921V34.4877ZM38.7798 21.9666C38.4914 23.9308 38.2271 25.8973 37.9563 27.8616C37.7581 29.3062 37.5643 30.7485 37.3573 32.279C36.8857 31.9314 36.435 31.5564 36.0074 31.1559C35.1926 30.4622 34.3845 29.7554 33.5653 29.0639C33.4773 28.9948 33.4058 28.907 33.3559 28.8068C33.306 28.7067 33.279 28.5967 33.2768 28.4848C33.1006 25.9891 32.9171 23.5007 32.7263 21.0197C32.6228 19.6698 32.5655 18.3133 32.396 16.9744C32.2726 16.0143 32.4818 15.096 32.4796 14.1447C32.6999 14.1447 32.7571 14.2879 32.8386 14.3848C34.7368 16.6456 36.6343 18.9064 38.531 21.1672C38.6326 21.2723 38.7081 21.3998 38.7513 21.5394C38.7946 21.6791 38.8043 21.8269 38.7798 21.971V21.9666Z"/>
</mask>
<path d="M39.7047 20.773C37.3705 18.0028 35.0458 15.2259 32.7307 12.4425C32.6059 12.2753 32.4361 12.147 32.2412 12.0725C32.0462 11.998 31.8341 11.9805 31.6296 12.0219C31.0549 12.0924 30.4757 12.1298 29.8966 12.1739C28.3199 12.2972 26.741 12.4117 25.1643 12.535C23.5523 12.6605 21.9404 12.7927 20.3197 12.9204C19.2693 13.0041 18.2167 13.0965 17.1641 13.1626C16.9201 13.1527 16.6805 13.2295 16.4878 13.3795C16.2951 13.5294 16.1618 13.7428 16.1115 13.9818C14.799 17.9749 13.4609 21.9585 12.097 25.9325C12.0154 26.1426 11.9846 26.3691 12.0072 26.5933C12.0298 26.8176 12.1051 27.0334 12.227 27.223C14.0371 30.3617 15.8355 33.507 17.6221 36.6589C18.2313 37.7292 18.8391 38.7994 19.4454 39.8696C19.6304 40.1955 19.8506 40.4532 20.0884 40.4135C21.2357 40.277 22.1958 40.1625 23.156 40.0436C25.9453 39.7015 28.7346 39.3588 31.5239 39.0152C31.8243 38.9848 32.1081 38.8625 32.3365 38.6651C34.1951 37.1031 36.0588 35.5491 37.9276 34.0033C38.203 33.7869 38.3812 33.4701 38.4231 33.1224C38.6697 31.2947 38.923 29.4669 39.1718 27.6392C39.4361 25.6903 39.6893 23.7371 39.9734 21.7904C40.0124 21.6117 40.0085 21.4262 39.9618 21.2493C39.915 21.0724 39.8269 20.9092 39.7047 20.773ZM31.8036 24.5166C31.9005 25.7953 32.0025 27.074 32.1097 28.3526C32.1319 28.4631 32.1216 28.5775 32.0802 28.6823C32.0388 28.787 31.968 28.8775 31.8763 28.9428C29.9957 30.3918 28.1327 31.854 26.2521 33.3096C26.2207 33.3288 26.1875 33.345 26.153 33.358C25.9857 33.2809 25.9064 33.118 25.7985 32.9837C24.3165 31.1295 22.8433 29.2687 21.3524 27.4212C21.2578 27.3224 21.1962 27.1967 21.1761 27.0614C21.156 26.9261 21.1784 26.7879 21.2401 26.6659C22.2193 24.0674 23.1905 21.4653 24.1535 18.8594C24.1903 18.7208 24.2712 18.5979 24.384 18.5093C24.4969 18.4207 24.6355 18.3712 24.7789 18.3684C26.9215 18.0887 29.0576 17.7782 31.2266 17.4721C31.3962 18.2032 31.3764 18.8925 31.4358 19.5729C31.5812 21.2223 31.6759 22.8717 31.8036 24.521V24.5166ZM20.2734 14.0897C22.2685 13.9355 24.2636 13.7902 26.2587 13.6317C27.7826 13.5105 29.3042 13.3784 30.8259 13.2507C30.9294 13.2507 31.0461 13.2507 31.1408 13.2375C31.3345 13.2177 31.3852 13.3167 31.361 13.4885C31.2905 14.3693 31.2178 15.2392 31.154 16.1134C31.1408 16.316 30.9976 16.3336 30.8633 16.3336C30.2555 16.4247 29.6477 16.5127 29.04 16.5979C27.58 16.8027 26.12 17.0009 24.66 17.2123C24.2458 17.2886 23.8179 17.2102 23.4576 16.9921C22.0703 16.1685 20.6544 15.3889 19.2516 14.5873C19.0464 14.4949 18.8592 14.3667 18.6989 14.2086C19.2759 14.1844 19.7845 14.1337 20.2734 14.0941V14.0897ZM17.1046 14.7327L18.9257 15.7655C20.222 16.4995 21.5191 17.2335 22.8168 17.9676C23.1648 18.1658 23.167 18.1702 23.0371 18.5225C22.0879 21.0747 21.13 23.6226 20.1919 26.1792C20.179 26.2415 20.1536 26.3005 20.1173 26.3527C20.081 26.4049 20.0345 26.4492 19.9806 26.4829C19.9266 26.5167 19.8665 26.5392 19.8036 26.549C19.7408 26.5589 19.6766 26.5559 19.615 26.5403C18.0603 26.3994 16.5012 26.2871 14.9443 26.1528C14.4225 26.1065 13.8917 26.1351 13.317 25.9766C14.5744 22.2506 15.8318 18.5203 17.1046 14.7371V14.7327ZM20.2008 38.8126L13.6187 27.2626C14.004 27.2802 14.2991 27.2868 14.592 27.3111L18.2167 27.6084C18.743 27.6524 19.2671 27.692 19.7934 27.7251C19.9152 27.7329 20.0336 27.768 20.14 27.8278C20.2464 27.8877 20.3379 27.9707 20.4077 28.0708C21.9037 29.9602 23.4033 31.8459 24.9066 33.728C25.0564 33.9152 25.1863 34.0495 24.9353 34.2895C23.4092 35.7473 21.9008 37.2249 20.3857 38.6937C20.3268 38.7388 20.265 38.78 20.2008 38.817V38.8126ZM35.5207 34.4877C34.2817 35.5154 33.0426 36.5518 31.8036 37.597C31.6352 37.7498 31.4237 37.8468 31.198 37.8745C29.2161 38.1079 27.2342 38.3546 25.2391 38.6012C24.2284 38.7245 23.2176 38.8589 22.2091 38.9866C22.0872 39.0195 21.9583 39.0149 21.8391 38.9734C21.8876 38.7906 22.0483 38.6981 22.1672 38.5814C23.3872 37.3901 24.6137 36.2053 25.8337 35.014C26.1134 34.7387 26.4943 34.622 26.7916 34.382C28.6128 32.944 30.4471 31.5193 32.277 30.1012C32.6514 29.8105 32.6536 29.8105 33.0015 30.1012L36.8112 33.3823C36.3487 33.7918 35.9369 34.1442 35.5207 34.4921V34.4877ZM38.7798 21.9666C38.4914 23.9308 38.2271 25.8973 37.9563 27.8616C37.7581 29.3062 37.5643 30.7485 37.3573 32.279C36.8857 31.9314 36.435 31.5564 36.0074 31.1559C35.1926 30.4622 34.3845 29.7554 33.5653 29.0639C33.4773 28.9948 33.4058 28.907 33.3559 28.8068C33.306 28.7067 33.279 28.5967 33.2768 28.4848C33.1006 25.9891 32.9171 23.5007 32.7263 21.0197C32.6228 19.6698 32.5655 18.3133 32.396 16.9744C32.2726 16.0143 32.4818 15.096 32.4796 14.1447C32.6999 14.1447 32.7571 14.2879 32.8386 14.3848C34.7368 16.6456 36.6343 18.9064 38.531 21.1672C38.6326 21.2723 38.7081 21.3998 38.7513 21.5394C38.7946 21.6791 38.8043 21.8269 38.7798 21.971V21.9666Z" fill="#FEFAF6"/>
<path d="M39.7047 20.773C37.3705 18.0028 35.0458 15.2259 32.7307 12.4425C32.6059 12.2753 32.4361 12.147 32.2412 12.0725C32.0462 11.998 31.8341 11.9805 31.6296 12.0219C31.0549 12.0924 30.4757 12.1298 29.8966 12.1739C28.3199 12.2972 26.741 12.4117 25.1643 12.535C23.5523 12.6605 21.9404 12.7927 20.3197 12.9204C19.2693 13.0041 18.2167 13.0965 17.1641 13.1626C16.9201 13.1527 16.6805 13.2295 16.4878 13.3795C16.2951 13.5294 16.1618 13.7428 16.1115 13.9818C14.799 17.9749 13.4609 21.9585 12.097 25.9325C12.0154 26.1426 11.9846 26.3691 12.0072 26.5933C12.0298 26.8176 12.1051 27.0334 12.227 27.223C14.0371 30.3617 15.8355 33.507 17.6221 36.6589C18.2313 37.7292 18.8391 38.7994 19.4454 39.8696C19.6304 40.1955 19.8506 40.4532 20.0884 40.4135C21.2357 40.277 22.1958 40.1625 23.156 40.0436C25.9453 39.7015 28.7346 39.3588 31.5239 39.0152C31.8243 38.9848 32.1081 38.8625 32.3365 38.6651C34.1951 37.1031 36.0588 35.5491 37.9276 34.0033C38.203 33.7869 38.3812 33.4701 38.4231 33.1224C38.6697 31.2947 38.923 29.4669 39.1718 27.6392C39.4361 25.6903 39.6893 23.7371 39.9734 21.7904C40.0124 21.6117 40.0085 21.4262 39.9618 21.2493C39.915 21.0724 39.8269 20.9092 39.7047 20.773ZM31.8036 24.5166C31.9005 25.7953 32.0025 27.074 32.1097 28.3526C32.1319 28.4631 32.1216 28.5775 32.0802 28.6823C32.0388 28.787 31.968 28.8775 31.8763 28.9428C29.9957 30.3918 28.1327 31.854 26.2521 33.3096C26.2207 33.3288 26.1875 33.345 26.153 33.358C25.9857 33.2809 25.9064 33.118 25.7985 32.9837C24.3165 31.1295 22.8433 29.2687 21.3524 27.4212C21.2578 27.3224 21.1962 27.1967 21.1761 27.0614C21.156 26.9261 21.1784 26.7879 21.2401 26.6659C22.2193 24.0674 23.1905 21.4653 24.1535 18.8594C24.1903 18.7208 24.2712 18.5979 24.384 18.5093C24.4969 18.4207 24.6355 18.3712 24.7789 18.3684C26.9215 18.0887 29.0576 17.7782 31.2266 17.4721C31.3962 18.2032 31.3764 18.8925 31.4358 19.5729C31.5812 21.2223 31.6759 22.8717 31.8036 24.521V24.5166ZM20.2734 14.0897C22.2685 13.9355 24.2636 13.7902 26.2587 13.6317C27.7826 13.5105 29.3042 13.3784 30.8259 13.2507C30.9294 13.2507 31.0461 13.2507 31.1408 13.2375C31.3345 13.2177 31.3852 13.3167 31.361 13.4885C31.2905 14.3693 31.2178 15.2392 31.154 16.1134C31.1408 16.316 30.9976 16.3336 30.8633 16.3336C30.2555 16.4247 29.6477 16.5127 29.04 16.5979C27.58 16.8027 26.12 17.0009 24.66 17.2123C24.2458 17.2886 23.8179 17.2102 23.4576 16.9921C22.0703 16.1685 20.6544 15.3889 19.2516 14.5873C19.0464 14.4949 18.8592 14.3667 18.6989 14.2086C19.2759 14.1844 19.7845 14.1337 20.2734 14.0941V14.0897ZM17.1046 14.7327L18.9257 15.7655C20.222 16.4995 21.5191 17.2335 22.8168 17.9676C23.1648 18.1658 23.167 18.1702 23.0371 18.5225C22.0879 21.0747 21.13 23.6226 20.1919 26.1792C20.179 26.2415 20.1536 26.3005 20.1173 26.3527C20.081 26.4049 20.0345 26.4492 19.9806 26.4829C19.9266 26.5167 19.8665 26.5392 19.8036 26.549C19.7408 26.5589 19.6766 26.5559 19.615 26.5403C18.0603 26.3994 16.5012 26.2871 14.9443 26.1528C14.4225 26.1065 13.8917 26.1351 13.317 25.9766C14.5744 22.2506 15.8318 18.5203 17.1046 14.7371V14.7327ZM20.2008 38.8126L13.6187 27.2626C14.004 27.2802 14.2991 27.2868 14.592 27.3111L18.2167 27.6084C18.743 27.6524 19.2671 27.692 19.7934 27.7251C19.9152 27.7329 20.0336 27.768 20.14 27.8278C20.2464 27.8877 20.3379 27.9707 20.4077 28.0708C21.9037 29.9602 23.4033 31.8459 24.9066 33.728C25.0564 33.9152 25.1863 34.0495 24.9353 34.2895C23.4092 35.7473 21.9008 37.2249 20.3857 38.6937C20.3268 38.7388 20.265 38.78 20.2008 38.817V38.8126ZM35.5207 34.4877C34.2817 35.5154 33.0426 36.5518 31.8036 37.597C31.6352 37.7498 31.4237 37.8468 31.198 37.8745C29.2161 38.1079 27.2342 38.3546 25.2391 38.6012C24.2284 38.7245 23.2176 38.8589 22.2091 38.9866C22.0872 39.0195 21.9583 39.0149 21.8391 38.9734C21.8876 38.7906 22.0483 38.6981 22.1672 38.5814C23.3872 37.3901 24.6137 36.2053 25.8337 35.014C26.1134 34.7387 26.4943 34.622 26.7916 34.382C28.6128 32.944 30.4471 31.5193 32.277 30.1012C32.6514 29.8105 32.6536 29.8105 33.0015 30.1012L36.8112 33.3823C36.3487 33.7918 35.9369 34.1442 35.5207 34.4921V34.4877ZM38.7798 21.9666C38.4914 23.9308 38.2271 25.8973 37.9563 27.8616C37.7581 29.3062 37.5643 30.7485 37.3573 32.279C36.8857 31.9314 36.435 31.5564 36.0074 31.1559C35.1926 30.4622 34.3845 29.7554 33.5653 29.0639C33.4773 28.9948 33.4058 28.907 33.3559 28.8068C33.306 28.7067 33.279 28.5967 33.2768 28.4848C33.1006 25.9891 32.9171 23.5007 32.7263 21.0197C32.6228 19.6698 32.5655 18.3133 32.396 16.9744C32.2726 16.0143 32.4818 15.096 32.4796 14.1447C32.6999 14.1447 32.7571 14.2879 32.8386 14.3848C34.7368 16.6456 36.6343 18.9064 38.531 21.1672C38.6326 21.2723 38.7081 21.3998 38.7513 21.5394C38.7946 21.6791 38.8043 21.8269 38.7798 21.971V21.9666Z" stroke="white" mask="url(#path-2-outside-1_928_4439)"/>
<defs>
<linearGradient id="paint0_linear_928_4439" x1="26" y1="1.31044" x2="26" y2="52.4176" gradientUnits="userSpaceOnUse">
<stop stop-color="#F1A05B"/>
<stop offset="1" stop-color="#EB7814"/>
</linearGradient>
</defs>
</svg>
