<svg width="98" height="25" viewBox="0 0 98 25" fill="none" xmlns="http://www.w3.org/2000/svg">
<path d="M19.8447 13.4247C19.0377 13.3686 18.2268 13.3111 17.4185 13.3097C15.8869 13.3056 14.3526 13.333 12.821 13.3659C11.9915 13.385 11.1633 13.4288 10.3364 13.4932C9.33436 13.5726 8.33496 13.6752 7.33556 13.7861C4.91602 14.053 2.52966 14.5048 0.176477 15.144C0.168514 15.1468 0.160551 15.1495 0.152588 15.1523C0.191078 15.3439 0.236203 15.5356 0.282656 15.7258C0.909108 15.7546 1.53423 15.7847 2.16201 15.8093C2.73803 15.8326 3.31272 15.849 3.88874 15.875C4.71693 15.912 5.5438 15.9558 6.37199 15.99C6.96659 16.0147 7.56251 16.0284 8.15711 16.053C9.08352 16.0913 10.0099 16.1324 10.935 16.1707C11.4712 16.194 12.0074 16.2118 12.5436 16.235C13.47 16.2734 14.3951 16.3144 15.3202 16.3514C15.8962 16.3747 16.4709 16.3925 17.0469 16.4144C18.0516 16.4527 19.055 16.4938 20.0597 16.5321C20.4101 16.5458 20.7605 16.5567 21.1135 16.5663C21.8754 16.5869 22.6359 16.6074 23.3964 16.6197C23.4295 16.6211 23.4587 16.6211 23.4826 16.6197C23.7826 15.7217 23.983 14.7772 24.0746 13.7984C23.7746 13.7615 23.4747 13.7218 23.1721 13.6944C22.0625 13.6013 20.9543 13.5028 19.8447 13.4247Z" fill="#2764FF"/>
<path d="M23.638 9.06202C23.5995 9.05517 23.553 9.0538 23.4973 9.0497C22.1355 8.95661 20.7738 8.85531 19.4107 8.78276C18.2414 8.72253 17.0695 8.68147 15.8989 8.66504C14.8557 8.64998 13.8098 8.67736 12.7653 8.69105C12.4229 8.69515 12.0818 8.70337 11.742 8.7239C10.7678 8.77866 9.79363 8.82246 8.82077 8.90322C7.49885 9.01547 6.17825 9.13868 4.86032 9.29336C3.84233 9.41382 2.83098 9.58493 1.81963 9.7492C1.25689 9.84091 0.69945 9.95864 0.140686 10.075C0.0849424 10.3611 0.0371624 10.6527 0 10.947C1.55684 10.9976 23.5145 11.6889 24.1012 11.7026C24.0388 10.7909 23.8822 9.90662 23.638 9.06202Z" fill="#2764FF"/>
<path d="M20.9954 4.22174C20.7486 4.20668 20.5043 4.17656 20.2575 4.16835C19.0577 4.13276 17.8578 4.09169 16.658 4.07937C15.7117 4.06842 14.7641 4.08758 13.8191 4.10675C12.9604 4.12728 12.1016 4.1396 11.2456 4.20394C10.002 4.29839 8.75968 4.42433 7.5174 4.55711C5.81722 4.73918 2.63983 5.42088 2.00409 5.55914C1.84747 5.79322 1.70015 6.03277 1.56079 6.2778C4.24445 6.37773 21.2237 6.97457 22.8588 7.02659C22.3651 6.00403 21.7347 5.06086 20.9954 4.22174Z" fill="#2764FF"/>
<path d="M21.0432 18.6457C19.7439 18.5143 18.4419 18.3336 17.1385 18.2939C15.1888 18.2364 13.2325 18.2323 11.2841 18.376C10.0777 18.465 8.87519 18.5937 7.67404 18.7292C5.83716 18.9359 4.02814 19.2959 2.23903 19.7668C2.20054 19.7764 2.16471 19.7874 2.12622 19.7983C2.24567 19.9708 2.36778 20.1405 2.49652 20.3062C2.76329 20.3117 3.03006 20.324 3.29684 20.3336C3.83304 20.3541 4.36924 20.3733 4.90411 20.3979C5.7124 20.4349 6.52201 20.4787 7.33029 20.5129C7.93418 20.5375 8.53807 20.5512 9.14329 20.5758C10.225 20.6224 11.3053 20.6771 12.387 20.7223C13.2643 20.7593 14.143 20.7812 15.0203 20.8168C16.1696 20.8633 17.319 20.9194 18.4697 20.9619C19.2873 20.9934 20.1049 21.0057 20.9211 21.0344C21.5117 20.3787 22.032 19.6587 22.4713 18.8839C22.4262 18.8702 22.3851 18.8579 22.3426 18.8511C21.9112 18.7785 21.4799 18.6895 21.0432 18.6457Z" fill="#2764FF"/>
<path d="M18.767 2.11493C18.5494 1.96299 18.3264 1.81925 18.0981 1.68373C16.3103 0.61326 14.2306 0 12.0128 0C9.79362 0 7.71385 0.61326 5.9274 1.68373C5.6885 1.82609 5.45491 1.97804 5.22662 2.13547H18.7697V2.11493H18.767Z" fill="#2764FF"/>
<path d="M6.17031 23.3835C7.87448 24.3499 9.82949 24.9057 11.9093 24.9235H12.1176C14.1974 24.9057 16.1524 24.3499 17.8566 23.3835C18.1698 23.2069 18.4751 23.0152 18.7697 22.8099V22.7866H5.224C5.52926 23.0015 5.84514 23.2 6.17031 23.3835Z" fill="#2764FF"/>
<path d="M37.0244 6.36255C34.9075 6.36255 33.1409 7.6233 32.4123 9.61092V6.56788H29.5654V20.1048H32.4123V13.7299C32.5583 12.3815 33.0732 11.2714 33.9426 10.4268C34.8106 9.58628 35.8724 9.15918 37.0987 9.15918C37.4053 9.15918 37.6296 9.18656 37.7902 9.20983L37.8712 9.22215V6.42141L37.8101 6.41183C37.5725 6.37897 37.3151 6.36255 37.0244 6.36255Z" fill="#1C2127"/>
<path d="M48.2103 6.7787C47.4418 6.46797 46.6601 6.31055 45.8863 6.31055C45.1139 6.31055 44.3189 6.46797 43.5265 6.7787C41.6976 7.48779 40.4035 8.67051 39.6802 10.2926C38.8507 12.1283 38.8507 14.5951 39.6802 16.4321C40.4062 18.0392 41.7002 19.2123 43.5265 19.9214C44.3202 20.2184 45.1139 20.3704 45.8863 20.3704C46.6588 20.3704 47.4405 20.2198 48.209 19.9214C50.0432 19.2328 51.3452 18.0597 52.0805 16.4321C52.91 14.5964 52.91 12.1283 52.0805 10.294C51.3372 8.62807 50.0711 7.47821 48.2103 6.7787ZM48.6854 16.5799C47.8851 17.3534 46.9415 17.7449 45.8797 17.7449C44.8099 17.7449 43.8835 17.3643 43.0487 16.5799C42.2324 15.7915 41.8184 14.7087 41.8184 13.3631C41.8184 11.9805 42.2205 10.9196 43.0474 10.1202C43.9021 9.31799 44.8285 8.92923 45.8797 8.92923C46.9242 8.92923 47.8679 9.33031 48.6868 10.1202C49.5309 10.9114 49.941 11.9723 49.941 13.3631C49.941 14.7361 49.5309 15.7874 48.6854 16.5799Z" fill="#1C2127"/>
<path d="M60.5655 6.3107C59.0192 6.3107 57.4637 6.91985 56.1869 8.02728C54.8385 9.19631 54.0328 11.1812 54.0328 13.3372C54.0328 15.4918 54.8385 17.4767 56.1869 18.6471C57.4637 19.7545 59.0192 20.3637 60.5655 20.3637C62.7474 20.3637 64.3547 19.103 64.9413 17.9175H64.9772V25.0001H67.8241V6.271L64.9188 8.71036C64.3109 7.53722 62.7182 6.3107 60.5655 6.3107ZM60.9159 17.745C59.8289 17.745 58.8586 17.3535 58.0344 16.5801C57.2076 15.7807 56.8054 14.7198 56.8054 13.3372C56.8054 11.9546 57.2076 10.8937 58.0344 10.0943C58.8586 9.32088 59.8289 8.92937 60.9159 8.92937C62.0281 8.92937 62.9969 9.32088 63.7973 10.0943C64.6414 10.8855 65.0515 11.9464 65.0515 13.3372C65.0515 14.728 64.6414 15.7875 63.7973 16.5801C62.9969 17.3521 62.0281 17.745 60.9159 17.745Z" fill="#1C2127"/>
<path d="M76.3025 6.3107C74.7562 6.3107 73.2007 6.91985 71.9239 8.02728C70.5755 9.19631 69.7698 11.1812 69.7698 13.3372C69.7698 15.4918 70.5755 17.4767 71.9239 18.6471C73.2007 19.7545 74.7562 20.3637 76.3025 20.3637C78.4844 20.3637 80.0917 19.103 80.6783 17.9175H80.7142V25.0001H83.5611V6.271L80.6558 8.71036C80.0492 7.53722 78.4552 6.3107 76.3025 6.3107ZM76.6528 17.745C75.5658 17.745 74.5956 17.3535 73.7714 16.5801C72.9446 15.7807 72.5424 14.7198 72.5424 13.3372C72.5424 11.9546 72.9446 10.8937 73.7714 10.0943C74.5956 9.32088 75.5658 8.92937 76.6528 8.92937C77.7651 8.92937 78.7339 9.32088 79.5356 10.0943C80.3797 10.8855 80.7898 11.9464 80.7898 13.3372C80.7898 14.728 80.3797 15.7889 79.5356 16.5801C78.7339 17.3521 77.7651 17.745 76.6528 17.745Z" fill="#1C2127"/>
<path d="M95.1531 6.56778V14.6415C95.0801 15.3163 94.7164 16.0213 94.07 16.7372C93.4529 17.4217 92.6446 17.7694 91.6678 17.7694C89.7672 17.7694 88.6337 16.4484 88.6337 14.2377V6.56778H85.7868V14.3923C85.7868 16.3348 86.2739 17.8337 87.2348 18.8467C88.1878 19.8528 89.3677 20.3621 90.7414 20.3621C93.4622 20.3621 94.873 18.3032 95.25 17.3806L98 19.8419V6.56641H95.1531V6.56778Z" fill="#1C2127"/>
</svg>
