<svg width="32" height="32" viewBox="0 0 32 32" fill="none" xmlns="http://www.w3.org/2000/svg">
<path d="M26.3253 17.1829C25.2549 17.111 24.1791 17.0374 23.1069 17.0357C21.0752 17.0304 19.0399 17.0655 17.0082 17.1075C15.9078 17.1321 14.8092 17.1881 13.7123 17.2705C12.383 17.3721 11.0573 17.5035 9.73155 17.6454C6.52196 17.9871 3.35638 18.5653 0.234815 19.3836C0.224251 19.3871 0.213689 19.3906 0.203125 19.3941C0.254183 19.6394 0.314043 19.8847 0.375664 20.1283C1.20667 20.1651 2.03592 20.2036 2.86869 20.2352C3.6328 20.2649 4.39514 20.286 5.15924 20.3193C6.25786 20.3666 7.35473 20.4226 8.45335 20.4664C9.2421 20.498 10.0326 20.5155 10.8214 20.547C12.0503 20.5961 13.2792 20.6487 14.5063 20.6977C15.2176 20.7275 15.9289 20.7503 16.6402 20.7801C17.8691 20.8291 19.0962 20.8817 20.3234 20.929C21.0875 20.9588 21.8498 20.9816 22.6139 21.0096C23.9467 21.0587 25.2777 21.1112 26.6105 21.1603C27.0753 21.1778 27.5401 21.1918 28.0085 21.2041C29.019 21.2304 30.0279 21.2567 31.0367 21.2724C31.0807 21.2742 31.1194 21.2742 31.1511 21.2724C31.549 20.123 31.8149 18.914 31.9364 17.6612C31.5385 17.6139 31.1406 17.5631 30.7392 17.528C29.2673 17.4089 27.7972 17.2827 26.3253 17.1829Z" fill="url(#paint0_linear_3674_1211)"/>
<path d="M31.3565 11.5997C31.3054 11.5909 31.2438 11.5892 31.1699 11.5839C29.3635 11.4648 27.5571 11.3351 25.7489 11.2422C24.1978 11.1652 22.6432 11.1126 21.0904 11.0916C19.7065 11.0723 18.3192 11.1073 16.9336 11.1249C16.4793 11.1301 16.0268 11.1406 15.5761 11.1669C14.2838 11.237 12.9916 11.2931 11.701 11.3964C9.94745 11.5401 8.19564 11.6978 6.44736 11.8958C5.09697 12.05 3.75538 12.269 2.4138 12.4793C1.6673 12.5967 0.927842 12.7474 0.186624 12.8963C0.112679 13.2625 0.0492971 13.6357 0 14.0124C2.0652 14.0773 31.1927 14.9621 31.9709 14.9796C31.8882 13.8127 31.6804 12.6808 31.3565 11.5997Z" fill="url(#paint1_linear_3674_1211)"/>
<path d="M27.8509 5.40507C27.5235 5.3858 27.1995 5.34725 26.872 5.33674C25.2804 5.29118 23.6889 5.23861 22.0973 5.22284C20.8419 5.20883 19.5849 5.23336 18.3313 5.25789C17.1922 5.28417 16.0531 5.29994 14.9175 5.38229C13.2678 5.50319 11.6199 5.6644 9.97193 5.83436C7.71659 6.0674 3.50169 6.93998 2.65836 7.11695C2.4506 7.41657 2.25518 7.7232 2.07031 8.03684C5.63027 8.16475 28.1538 8.9287 30.3228 8.99528C29.6679 7.6864 28.8316 6.47916 27.8509 5.40507Z" fill="url(#paint2_linear_3674_1211)"/>
<path d="M27.9143 23.8653C26.1907 23.6971 24.4635 23.4658 22.7346 23.415C20.1482 23.3414 17.5531 23.3361 14.9685 23.5201C13.3681 23.634 11.773 23.7987 10.1797 23.9722C7.74298 24.2367 5.34327 24.6976 2.96996 25.3003C2.91891 25.3126 2.87137 25.3266 2.82031 25.3406C2.97877 25.5614 3.14074 25.7787 3.31152 25.9907C3.6654 25.9977 4.01929 26.0134 4.37317 26.0257C5.08446 26.052 5.79574 26.0765 6.50527 26.1081C7.57748 26.1554 8.65145 26.2114 9.72367 26.2552C10.5247 26.2868 11.3258 26.3043 12.1287 26.3358C13.5636 26.3954 14.9967 26.4655 16.4316 26.5233C17.5954 26.5706 18.7609 26.5987 19.9247 26.6442C21.4493 26.7038 22.974 26.7756 24.5005 26.83C25.585 26.8703 26.6695 26.886 27.7523 26.9228C28.5358 26.0835 29.226 25.1619 29.8087 24.1701C29.7489 24.1526 29.6943 24.1369 29.6379 24.1281C29.0657 24.0352 28.4935 23.9213 27.9143 23.8653Z" fill="url(#paint3_linear_3674_1211)"/>
<path d="M24.8953 2.70711C24.6066 2.51262 24.3108 2.32864 24.008 2.15517C21.6365 0.784973 18.8776 0 15.9356 0C12.9919 0 10.233 0.784973 7.8632 2.15517C7.54629 2.3374 7.23642 2.5319 6.93359 2.7334H24.8989V2.70711H24.8953Z" fill="url(#paint4_linear_3674_1211)"/>
<path d="M8.185 29.9319C10.4456 31.169 13.039 31.8803 15.7979 31.9031H16.0743C18.8332 31.8803 21.4266 31.169 23.6872 29.9319C24.1027 29.7059 24.5076 29.4606 24.8985 29.1978V29.168H6.92969C7.33463 29.4431 7.75365 29.6971 8.185 29.9319Z" fill="url(#paint5_linear_3674_1211)"/>
<defs>
<linearGradient id="paint0_linear_3674_1211" x1="0.203125" y1="19.1545" x2="31.9364" y2="19.1545" gradientUnits="userSpaceOnUse">
<stop stop-color="#483BEB"/>
<stop offset="0.479167" stop-color="#7847E1"/>
<stop offset="0.963542" stop-color="#DD568D"/>
</linearGradient>
<linearGradient id="paint1_linear_3674_1211" x1="2.38202e-07" y1="13.0328" x2="31.9709" y2="13.0328" gradientUnits="userSpaceOnUse">
<stop stop-color="#483BEB"/>
<stop offset="0.479167" stop-color="#7847E1"/>
<stop offset="0.963542" stop-color="#DD568D"/>
</linearGradient>
<linearGradient id="paint2_linear_3674_1211" x1="2.07031" y1="7.10701" x2="30.3228" y2="7.10702" gradientUnits="userSpaceOnUse">
<stop stop-color="#483BEB"/>
<stop offset="0.479167" stop-color="#7847E1"/>
<stop offset="0.963542" stop-color="#DD568D"/>
</linearGradient>
<linearGradient id="paint3_linear_3674_1211" x1="2.82031" y1="25.145" x2="29.8087" y2="25.145" gradientUnits="userSpaceOnUse">
<stop stop-color="#483BEB"/>
<stop offset="0.479167" stop-color="#7847E1"/>
<stop offset="0.963542" stop-color="#DD568D"/>
</linearGradient>
<linearGradient id="paint4_linear_3674_1211" x1="6.93359" y1="1.3667" x2="24.8989" y2="1.3667" gradientUnits="userSpaceOnUse">
<stop stop-color="#483BEB"/>
<stop offset="0.479167" stop-color="#7847E1"/>
<stop offset="0.963542" stop-color="#DD568D"/>
</linearGradient>
<linearGradient id="paint5_linear_3674_1211" x1="6.92969" y1="30.5355" x2="24.8985" y2="30.5355" gradientUnits="userSpaceOnUse">
<stop stop-color="#483BEB"/>
<stop offset="0.479167" stop-color="#7847E1"/>
<stop offset="0.963542" stop-color="#DD568D"/>
</linearGradient>
</defs>
</svg>
