<svg width="209" height="133" viewBox="0 0 209 133" fill="none" xmlns="http://www.w3.org/2000/svg">
<path d="M112.837 39.8086C110.63 34.7875 107.836 31.3644 103.908 30.1066C102.815 29.756 101.64 29.5808 100.351 29.5808C89.9169 29.5601 86.4423 41.8913 80.6891 62.3367C76.4722 77.297 67.6981 108.465 58.6559 106.486C56.7691 106.084 46.8918 102.011 35.8288 62.1614C29.5395 39.5508 26.2711 17.2083 26.2402 16.9918C25.5906 12.5274 21.4459 9.44464 16.9918 10.0839C12.5274 10.7231 9.44464 14.8782 10.0839 19.322C10.2179 20.2808 13.5069 42.7883 20.0643 66.3887C29.8179 101.526 40.9737 119.332 55.1917 122.425C62.9966 124.127 74.307 122.199 83.7719 103.341C89.123 92.6594 92.9997 78.8951 96.4124 66.7496C97.5775 62.6254 98.9488 57.7383 100.289 53.5523C103.722 41.5511 105.331 37.5919 112.837 39.8086Z" fill="url(#paint0_linear_1982_3768)"/>
<path d="M141.737 105.199C134.747 108.941 129.427 99.8474 127.571 96.2285C124.797 91.2383 121.9 76.7419 120.075 67.7307C117.797 56.3584 115.848 46.6151 112.837 39.8103C105.331 37.6039 103.723 41.5527 100.269 53.5437C101.671 58.9669 103.022 65.6996 104.073 70.9372C108.517 93.1045 112.054 110.58 123.828 112.828C130.86 114.158 136.675 110.694 141.737 105.199Z" fill="url(#paint1_linear_1982_3768)"/>
<path d="M178.256 88.5441C173.616 72.2331 169.286 59.7679 159.182 60.1287C151.295 60.4071 146.593 68.2121 140.067 79.007C137.087 83.9663 131.2 93.7199 127.57 96.2253C129.426 99.8442 134.746 108.938 141.737 105.195L141.757 105.185C146.325 100.236 150.315 93.6477 154.058 87.4305C155.336 85.2963 156.965 82.6053 158.46 80.3267C159.502 83.0074 160.873 87.0181 162.564 92.9981C163.791 97.3182 168.307 99.8442 172.647 98.6173C176.978 97.3903 179.483 92.8847 178.256 88.5441Z" fill="url(#paint2_linear_1982_3768)"/>
<path d="M177.566 122.107C182.07 122.107 185.721 118.456 185.721 113.951C185.721 109.447 182.07 105.796 177.566 105.796C173.061 105.796 169.41 109.447 169.41 113.951C169.41 118.456 173.061 122.107 177.566 122.107Z" fill="url(#paint3_linear_1982_3768)"/>
<path opacity="0.5" d="M105.115 47.3347C103.589 51.9228 102.311 55.9438 101.486 58.5626C101.094 56.8202 100.682 55.1293 100.279 53.5415C103.723 41.5505 105.342 37.5914 112.848 39.8081C112.837 39.8081 107.785 39.3029 105.115 47.3347Z" fill="url(#paint4_linear_1982_3768)"/>
<path opacity="0.5" d="M127.57 96.2283C128.107 95.8571 128.705 95.3107 129.323 94.6611C129.849 95.8262 130.839 98.2904 133.355 101.332C137.19 105.972 141.727 105.209 141.727 105.209C134.746 108.941 129.426 99.8472 127.57 96.2283Z" fill="url(#paint5_linear_1982_3768)"/>
<defs>
<linearGradient id="paint0_linear_1982_3768" x1="95.4876" y1="80.8804" x2="-0.576508" y2="51.9784" gradientUnits="userSpaceOnUse">
<stop stop-color="#FF892B"/>
<stop offset="1" stop-color="#E6623C"/>
</linearGradient>
<linearGradient id="paint1_linear_1982_3768" x1="130.353" y1="112.42" x2="102.442" y2="35.7212" gradientUnits="userSpaceOnUse">
<stop stop-color="#D05031"/>
<stop offset="1" stop-color="#7F560A"/>
</linearGradient>
<linearGradient id="paint2_linear_1982_3768" x1="189.367" y1="91.3452" x2="129.534" y2="78.7739" gradientUnits="userSpaceOnUse">
<stop stop-color="#FF892B"/>
<stop offset="1" stop-color="#E6623C"/>
</linearGradient>
<linearGradient id="paint3_linear_1982_3768" x1="184.356" y1="115.2" x2="124.523" y2="102.629" gradientUnits="userSpaceOnUse">
<stop stop-color="#FF892B"/>
<stop offset="1" stop-color="#E6623C"/>
</linearGradient>
<linearGradient id="paint4_linear_1982_3768" x1="107.035" y1="58.3039" x2="106.366" y2="34.4035" gradientUnits="userSpaceOnUse">
<stop stop-color="white"/>
<stop offset="1"/>
</linearGradient>
<linearGradient id="paint5_linear_1982_3768" x1="133.555" y1="92.8591" x2="136.267" y2="109.674" gradientUnits="userSpaceOnUse">
<stop stop-color="white"/>
<stop offset="1"/>
</linearGradient>
</defs>
</svg>
